<?xml version="1.0" encoding="utf-8"?>
<!-- Generator: Adobe Illustrator 24.3.0, SVG Export Plug-In . SVG Version: 6.00 Build 0)  -->
<svg version="1.1" id="Layer_1" xmlns="http://www.w3.org/2000/svg" xmlns:xlink="http://www.w3.org/1999/xlink" x="0px" y="0px"
	 viewBox="0 0 166.8 43.4" style="enable-background:new 0 0 166.8 43.4;" xml:space="preserve">
<g>
	<g>
		<g>
			<path d="M101.8,16.1L82.8,2.3L81,0.9l-1.3,0.9l-19,13.7l-0.5,0.5l-1.2,1.1l0.5,1.4l0.1,0.6l7.2,22.5l0.5,1.4h2.3h23.5h1.4
				l0.8-2.1l7.1-21.8l0.6-2.1L101.8,16.1z M81.8,5.2L96.8,16H78.3l0.9-2.7L81.8,5.2z M78.1,6.6l-2.3,7.2L75.2,16h-9.8L78.1,6.6z
				 M73.4,21.7l-0.8,2.6l-7.1-5.2h8.9L73.4,21.7z M68.4,36.7l-4.9-15.2l7.9,5.8L68.4,36.7z M70.6,39.9l2.7-8.8l0.6-2.1l5.9,4.4
				l9,6.5l0,0C88.9,39.9,70.6,39.9,70.6,39.9z M92.8,39.1l-10.7-7.7l-7.1-5.2l1.2-3.6l1.2-3.6h22L92.8,39.1z"/>
		</g>
	</g>
	<g>
		<g>
			<path d="M95.2,43.6H66.8l-8.8-27L81,0l23,16.7L95.2,43.6z M68,42.2h26.2l8.1-24.9L81,1.9L59.8,17.3L68,42.2z M91.4,40.8H69.5
				L73.6,28L91.4,40.8z M71.6,39.3h15.2l-12.4-8.9L71.6,39.3z M93.2,40.3l-19.1-14l2.7-8.1h23.6L93.2,40.3z M76,25.8l16.7,12
				l5.8-18.1H77.9L76,25.8z M68.4,39l-6.3-19.6l10.3,7.5L68.4,39z M65,23.5l3.6,10.7l2.3-6.6L65,23.5z M72.9,25.4l-9.8-7.1h12.1
				L72.9,25.4z M67.6,19.9l4.5,3.2l0.9-3.2H67.6z M99,16.8H77.3L81.5,4L99,16.8z M79.2,15.4h15.2L82.3,6.5L79.2,15.4z M75.7,16.8H63
				l16.7-12L75.7,16.8z M67.6,15.4h7l2.1-6.6L67.6,15.4z"/>
		</g>
	</g>
</g>
<g>
	<g>
		<path d="M0,11.4h4.8v26h4.7v-26h4.8V6.7H0V11.4z M27.1,22.1h-4.8V6.7h-4.7v30.8h4.7V26.9h4.8v10.6h4.7V6.7h-4.7V22.1z M37.8,37.4
			h12.6v-4.7h-7.9v-8.9h6.8v-4.7h-6.8v-7.7h7.9V6.7H37.8V37.4z M116.5,6c-2.3,0-4.1,0.7-5.4,2.1c-1.4,1.4-2,3.2-2,5.5v16.9
			c0,2.3,0.7,4.1,2,5.5c1.4,1.4,3.2,2.1,5.4,2.1c2.3,0,4.1-0.7,5.5-2.1c1.4-1.4,2-3.2,2-5.5v-8.2h-7.8V27h3.1v3.5
			c0,0.9-0.2,1.6-0.7,2.1c-0.5,0.5-1.2,0.8-2,0.8c-0.9,0-1.5-0.3-2-0.8c-0.5-0.5-0.7-1.2-0.7-2.1V13.6c0-0.9,0.2-1.6,0.7-2.1
			c0.5-0.5,1.2-0.8,2-0.8c0.9,0,1.5,0.3,2,0.8c0.5,0.5,0.7,1.2,0.7,2.1V15h4.7v-1.4c0-2.3-0.7-4.1-2-5.5C120.6,6.7,118.8,6,116.5,6z
			 M129.1,37.4h12.6v-4.7h-7.9v-8.9h6.8v-4.7h-6.8v-7.7h7.9V6.7h-12.6V37.4z M162.5,6.7l-5.9,22.6l-5.9-22.6h-4.3v30.8h4.4V21.6
			l4.3,15.8h3.2l4.3-15.8v15.8h4.4V6.7H162.5z"/>
	</g>
</g>
</svg>
